<?xml version="1.0" standalone="no"?>
<!DOCTYPE svg PUBLIC "-//W3C//DTD SVG 20010904//EN"
 "http://www.w3.org/TR/2001/REC-SVG-20010904/DTD/svg10.dtd">
<svg version="1.0" xmlns="http://www.w3.org/2000/svg"
 width="64.000000pt" height="64.000000pt" viewBox="0 0 64.000000 64.000000"
 preserveAspectRatio="xMidYMid meet">

<g transform="translate(0.000000,64.000000) scale(0.100000,-0.100000)"
fill="#000000" stroke="none">
<path d="M203 569 c-64 -19 -125 -114 -108 -169 5 -15 -1 -22 -28 -33 -22 -10
-40 -27 -52 -53 -16 -34 -17 -42 -4 -79 18 -50 62 -75 137 -75 l52 0 0 -38 c0
-56 11 -62 120 -62 108 0 120 6 120 61 l0 37 70 4 c60 3 74 8 97 31 37 36 38
95 4 131 -14 14 -31 26 -39 26 -10 0 -12 8 -7 30 16 72 -62 144 -133 122 -34
-11 -38 -9 -69 23 -18 19 -50 39 -71 44 -43 12 -46 12 -89 0z m121 -29 c18
-10 38 -31 46 -45 14 -26 34 -33 45 -15 3 6 23 10 44 10 28 0 45 -7 66 -27 24
-24 27 -34 23 -75 -4 -37 -2 -48 9 -48 8 0 25 -11 38 -25 33 -32 33 -78 0
-110 -21 -22 -33 -25 -90 -25 l-65 0 0 38 c0 21 -7 48 -16 60 -14 20 -24 22
-104 22 -80 0 -90 -2 -104 -22 -9 -12 -16 -39 -16 -60 l0 -38 -64 0 c-55 0
-67 3 -90 26 -36 37 -36 91 0 128 15 14 36 26 48 26 19 0 21 5 18 50 -8 116
114 191 212 130z m86 -270 c0 -6 -37 -10 -90 -10 -53 0 -90 4 -90 10 0 6 37
10 90 10 53 0 90 -4 90 -10z m10 -110 l0 -80 -100 0 -100 0 0 80 0 80 100 0
100 0 0 -80z"/>
<path d="M203 525 c-32 -14 -56 -42 -68 -82 -4 -14 -2 -23 4 -23 6 0 11 9 11
21 0 11 13 34 29 50 23 23 38 29 71 29 33 0 48 -6 71 -29 16 -16 29 -39 29
-50 0 -12 5 -21 11 -21 12 0 3 35 -18 68 -14 23 -69 52 -95 52 -7 -1 -27 -7
-45 -15z"/>
<path d="M199 471 c-16 -16 -29 -34 -29 -40 0 -19 15 -12 25 12 6 12 20 26 33
32 23 10 30 25 11 25 -6 0 -24 -13 -40 -29z"/>
<path d="M460 460 c0 -4 9 -10 21 -13 11 -3 23 -15 26 -26 3 -12 9 -21 14 -21
25 0 -11 55 -41 63 -11 3 -20 2 -20 -3z"/>
<path d="M460 422 c0 -12 19 -26 26 -19 2 2 -2 10 -11 17 -9 8 -15 8 -15 2z"/>
<path d="M65 315 c-14 -13 -25 -33 -25 -45 0 -22 41 -70 60 -70 18 0 11 15
-12 25 -18 8 -23 18 -23 45 0 27 5 37 23 45 12 5 22 13 22 17 0 15 -21 8 -45
-17z"/>
<path d="M513 310 c-40 -16 -42 -79 -1 -101 48 -26 98 22 78 76 -5 14 -14 25
-19 25 -5 0 -15 2 -23 4 -7 3 -23 1 -35 -4z m57 -25 c15 -18 10 -45 -12 -59
-35 -22 -74 27 -48 59 16 19 44 19 60 0z"/>
</g>
</svg>
